<svg viewBox="0 0 499.997 500.002" xmlns="http://www.w3.org/2000/svg"><path d="M250.001 0C111.93 0 0 111.93 0 249.997c0 138.066 111.93 250.005 250.001 250.005 138.066 0 249.996-111.939 249.996-250.005C499.997 111.93 388.067 0 250.001 0z" fill="#f2955c"/><path fill="#efeff0" d="M293.841 341.838h62.548v5.811h-62.548zM143.606 341.838h62.555v5.811h-62.555z"/><path fill="#656d78" d="M244.723 318.152h10.561v18.176h33.733v17.599h-78.022v-17.599h33.728z"/><g><path d="M369.214 177.708v134.103H130.783V201.497c0-8.64 7.07-15.717 15.724-15.717h121.268c5.579 0 10.243-3.958 11.339-9.216.066-.306.122-.636.158-.956 1.033-7.655 7.623-13.616 15.562-13.616h58.662c8.648-.001 15.718 7.067 15.718 15.716z" fill="#fff"/></g></svg>