<svg viewBox="0 0 500 499.997" xmlns="http://www.w3.org/2000/svg"><path d="M250.001 0C111.93 0 0 111.93 0 249.996c0 138.071 111.93 250.001 250.001 250.001C388.07 499.997 500 388.067 500 249.996 500 111.93 388.07 0 250.001 0z" fill="#f2955c"/><path d="M126.055 330.885c-5.486 0-9.971-4.487-9.971-9.971V173.041c0-5.484 4.485-9.971 9.971-9.971h247.891c5.486 0 9.973 4.487 9.973 9.971v147.873c0 5.484-4.487 9.971-9.973 9.971H126.055z" fill="#fff"/><path d="M389.205 325.016H74.364s0 11.911 11.906 11.911h327.456c11.912 0 11.912-11.911 11.912-11.911h-36.433z" fill="#efeff0"/><path fill="#656d78" d="M130.14 177.121h239.727v139.708H130.14z"/></svg>