<svg height="64" viewBox="0 0 64 64" width="64" xmlns="http://www.w3.org/2000/svg"><g fill="#37474F"><path d="M24 29h3v3h1V22h-4v1h3v5h-3v-5h-1v9h1zM31 29h4v-6h-1v5h-3v-5h3v-1h-4v10h1zM40 31h-1v-8h1v-1h-3v1h1v8h-1v1h3z"/><path d="M19 8.429v3.811l5 4V19h-4v3h-4.763l-2.671-3.271c.268-.34.434-.763.434-1.229a2 2 0 1 0-1.224 1.843L14.763 23H20v2h-6.207l-1.783 1.783A1.976 1.976 0 0 0 11 26.5a2 2 0 1 0 2 2c0-.37-.107-.712-.283-1.01l1.49-1.49H20v5h-6.207l-1.783 1.783A1.976 1.976 0 0 0 11 32.5a2 2 0 1 0 2 2c0-.37-.107-.712-.283-1.01l1.49-1.49H20v3h4v1a1.996 1.996 0 0 0 .5 3.929A1.996 1.996 0 1 0 25 36v-1h4v1a1.996 1.996 0 0 0 .5 3.929A1.996 1.996 0 1 0 30 36v-1h4v1a1.996 1.996 0 0 0 .5 3.929A1.996 1.996 0 1 0 35 36v-1h4v1a1.996 1.996 0 0 0 .5 3.929A1.996 1.996 0 1 0 40 36v-1h4v-3h5.793l1.49 1.49c-.176.298-.283.64-.283 1.01a2 2 0 1 0 2-2c-.37 0-.712.107-1.01.283L50.207 31H44v-2h6.203l1.517-1.476c.347.293.79.476 1.28.476a2 2 0 1 0-2-2c0 .247.051.481.133.7L49.797 28H44v-5h5.237l2.986-3.657A2 2 0 1 0 51 17.5c0 .466.166.889.434 1.229L48.763 22H44v-3h-4v-2.76l5-4V8.429a1.996 1.996 0 0 0-.5-3.929 1.996 1.996 0 1 0-.5 3.929v3.331l-5 4V19h-4v-4.756l5-3.917V8.429a1.996 1.996 0 0 0-.5-3.929 1.996 1.996 0 1 0-.5 3.929V9.84l-5 3.917V19h-4v-5.244L25 9.84V8.429a1.996 1.996 0 0 0-.5-3.929 1.996 1.996 0 1 0-.5 3.929v1.898l5 3.917V19h-4v-3.24l-5-4V8.429a1.996 1.996 0 0 0-.5-3.929 1.996 1.996 0 1 0-.5 3.929zM11 18.5a1 1 0 1 1 0-2 1 1 0 0 1 0 2zm0 11a1 1 0 1 1 0-2 1 1 0 0 1 0 2zm0 6a1 1 0 1 1 0-2 1 1 0 0 1 0 2zm42-2a1 1 0 1 1 0 2 1 1 0 0 1 0-2zm0-8.5a1 1 0 1 1 0 2 1 1 0 0 1 0-2zm0-8.5a1 1 0 1 1 0 2 1 1 0 0 1 0-2zm-9.5-10a1 1 0 1 1 2 0 1 1 0 0 1-2 0zm-5 0a1 1 0 1 1 2 0 1 1 0 0 1-2 0zm-15 0a1 1 0 1 1 2 0 1 1 0 0 1-2 0zm2 31.429a1 1 0 1 1-2 0 1 1 0 0 1 2 0zm5 0a1 1 0 1 1-2 0 1 1 0 0 1 2 0zm5 0a1 1 0 1 1-2 0 1 1 0 0 1 2 0zm5 0a1 1 0 1 1-2 0 1 1 0 0 1 2 0zM43 20v14H21V20h22zM19.5 5.5a1 1 0 1 1 0 2 1 1 0 0 1 0-2z"/><path d="M57 10H46v1h11c.551 0 1 .449 1 1v32H6V12c0-.551.449-1 1-1h11v-1H7c-1.1 0-2 .9-2 2v35c0 1.1.9 2 2 2h18.714l-1.429 5H21a2 2 0 0 0-2 2v1h26v-1a2 2 0 0 0-2-2h-3.286l-1.429-5H57c1.1 0 2-.9 2-2V12c0-1.1-.9-2-2-2zM40 55h3c.551 0 1 .449 1 1H20c0-.551.449-1 1-1h19zm-1.326-1H25.326l1.429-5h10.491l1.428 5zM58 47c0 .551-.449 1-1 1H7c-.551 0-1-.449-1-1v-2h52v2z"/><path d="M21 10v1h2.237L23 10.814V10zM35.897 11l1.277-1H26.826l1.277 1zM43 10h-2v.814l-.237.186H43zM33.344 13l1.277-1h-5.242l1.277 1z"/><path d="M7 12v30h50V12H46v.721l-.349.279H56v28H8V13h10.349L18 12.721V12z"/><path d="M25.791 13l-1.277-1h-2.613l1.25 1zM38.209 13h2.64l1.25-1h-2.613z"/></g></svg>