<svg id="Layer_1" viewBox="0 0 96 96" xmlns="http://www.w3.org/2000/svg"><style>.st0{fill:#fff}</style><path d="M55.5 48.2c0-2.4-.8-3.6-2.3-3.6-.8 0-1.3.4-2.3 1.2v5.5c1 .7 1.5.9 2.1.9 1.4-.1 2.5-1.3 2.5-4z"/><path d="M50 80.3l43-12.5V20H3v47.8l43 12.5c1 .3 3 .3 4 0zM63.9 42l1.8 5.5c.4 1.2.7 2.5 1 3.5h.1c.3-1 .6-2.3.9-3.5l1.6-5.5H73l-4.5 13.2c-1.2 3.3-2.6 4.9-5.6 4.9-.8 0-1.3-.2-1.8-.3l.7-3c.2.1.6.1.9.1 1.3 0 1.9-.7 2.3-1.7l.2-.5-5-12.7h3.7zM47 36h4V42.8c1-.9 2.2-1.5 3.4-1.5 3.1 0 5 2.7 5 6.8 0 4.6-2.6 7.5-5.3 7.5-1.1 0-2.3-.6-3.3-1.6h-.1l-.3 1H47V36zm-15.4 9c-.5-.1-.9-.2-1.5-.2-1 0-2 .7-3 2.5V55h-4V42h3.3l.3 2h.1c1-1 2.5-2.7 3.9-2.7.8 0 1.2.1 1.6.3l-.7 3.4zM45 55h-3.3l-.3-2h-.1c-1.1 1-2.3 2.1-4.2 2.1-2.9 0-4.1-2.2-4.1-5.6V41h4v8c0 1.9.5 2.6 1.6 2.6 1 0 1.4-.4 2.4-1.5v-9h4V55z"/><path d="M51.1 84.2c-.9.3-2 .4-3.1.4s-2.2-.1-3.1-.4L3 72v6.6c0 1.3 1.1 2.7 2.4 3.1l40.3 10.7c1.3.3 3.4.3 4.7 0l40.3-10.7c1.3-.3 2.4-1.7 2.4-3.1V72l-42 12.2zM93 16V5.4C93 4.1 91.9 3 90.6 3H5.4C4.1 3 3 4.1 3 5.4V16h90z"/></svg>