<svg viewBox="0 0 499.997 500.002" xmlns="http://www.w3.org/2000/svg"><path d="M250.001 0C111.93 0 0 111.939 0 249.996c0 138.076 111.93 250.006 250.001 250.006 138.066 0 249.996-111.93 249.996-250.006C499.997 111.939 388.067 0 250.001 0z" fill="#dfc97a"/><path d="M349.318 169.335c0-13.806-11.183-24.992-24.992-24.992H175.69c-13.823 0-25.016 11.186-25.016 24.992 0 13.796 11.193 25.002 25.016 25.002h148.637c13.808 0 24.991-11.206 24.991-25.002zM349.318 229.603c0-13.815-11.183-24.982-24.992-24.982H175.69c-13.823 0-25.016 11.167-25.016 24.982 0 13.796 11.193 24.982 25.016 24.982h148.637c13.808 0 24.991-11.186 24.991-24.982zM349.318 289.861c0-13.796-11.183-24.992-24.992-24.992H175.69c-13.823 0-25.016 11.196-25.016 24.992 0 13.816 11.193 24.982 25.016 24.982h148.637c13.808 0 24.991-11.167 24.991-24.982z" fill="#fff"/><path d="M187.517 229.603c0 4.725-3.83 8.547-8.562 8.547-4.711 0-8.557-3.822-8.557-8.547 0-4.724 3.847-8.557 8.557-8.557a8.558 8.558 0 0 1 8.562 8.557z" fill="#dfc97a"/><path d="M187.517 289.861c0 4.734-3.83 8.547-8.562 8.547-4.711 0-8.557-3.813-8.557-8.547 0-4.725 3.847-8.547 8.557-8.547 4.732 0 8.562 3.822 8.562 8.547z" fill="#7dbebd"/><path d="M187.517 169.335c0 4.725-3.83 8.547-8.562 8.547-4.711 0-8.557-3.822-8.557-8.547 0-4.724 3.847-8.557 8.557-8.557a8.559 8.559 0 0 1 8.562 8.557z" fill="#e5e6e7"/><g><path fill="#efeff0" d="M296.053 342.968h65.708v6.093h-65.708zM138.231 342.968h65.713v6.093h-65.713z"/><path fill="#656d78" d="M244.456 318.074h11.094v19.093h35.436v18.501h-81.96v-18.501h35.43z"/></g></svg>